<svg data-v-0dd9719b="" version="1.0" xmlns="http://www.w3.org/2000/svg" xmlns:xlink="http://www.w3.org/1999/xlink" width="100%" height="100%" viewBox="0 0 46.14120101928711 48.518611907958984" preserveAspectRatio="xMidYMid meet" color-interpolation-filters="sRGB" style="margin: auto;"> 
  <rect data-v-0dd9719b="" x="0" y="0" width="100%" height="100%" fill="#feffff" fill-opacity="1" class="background" style="display: none;"></rect> 
  <rect data-v-0dd9719b="" x="0" y="0" width="100%" height="100%" fill="url(#watermark)" fill-opacity="1" class="watermarklayer" style="display: none;"></rect> 
  <g data-v-0dd9719b="" class="imagesvg isNoFont">
    <g>
      <rect fill="#333" fill-opacity="0" stroke-width="2" x="0" y="0" width="46.14120168925012" height="48.51861376366995" class="image-rect"></rect> 
      <svg x="0" y="0" width="46.14120168925012" height="48.51861376366995" filtersec="colorsb7114885585" class="image-svg-svg primary" style="overflow: visible;">
        <svg xmlns="http://www.w3.org/2000/svg" viewBox="-0.0000014584441032639006 4.852053052673e-7 95.10874938964844 100.00942993164062">
          <title>资源 269</title>
          <path d="M93.92 73.9A50 50 0 0 1 0 50.25 9.73 9.73 0 0 0 19.45 50a30.56 30.56 0 0 0 57.4 14.59 9.72 9.72 0 1 1 17.07 9.31z" fill="#0d73bb" opacity=".9"></path>
          <path d="M19.45 50A9.73 9.73 0 0 1 0 50.25v-.5a9.73 9.73 0 0 1 19.45.25z" fill="#0d73bb"></path>
          <path d="M59.72 9.72A9.73 9.73 0 0 1 50 19.45 30.58 30.58 0 0 0 19.45 50 9.73 9.73 0 0 0 0 49.75 50.06 50.06 0 0 1 50 0a9.72 9.72 0 0 1 9.72 9.72z" fill="#25d2e0" opacity=".9"></path>
          <path d="M87.59 20.54a9.73 9.73 0 0 1-19.45.25v-.5a9.73 9.73 0 0 1 19.45.25z" fill="#25d2e0"></path>
        </svg>
      </svg>
    </g>
  </g>
  <defs v-gra="od"></defs>
</svg>
