<?xml version="1.0" standalone="no"?>
<!DOCTYPE svg PUBLIC "-//W3C//DTD SVG 20010904//EN"
 "http://www.w3.org/TR/2001/REC-SVG-20010904/DTD/svg10.dtd">
<svg version="1.0" xmlns="http://www.w3.org/2000/svg"
 width="784.000000pt" height="784.000000pt" viewBox="0 0 784.000000 784.000000"
 preserveAspectRatio="xMidYMid meet">
<metadata>
Created by potrace 1.14, written by Peter Selinger 2001-2017
</metadata>
<g transform="translate(0.000000,784.000000) scale(0.100000,-0.100000)"
fill="#000000" stroke="none">
<path d="M3878 7834 c-2 -1 -34 -5 -73 -8 -153 -13 -191 -17 -205 -22 -8 -3
-33 -7 -55 -9 -22 -1 -53 -5 -70 -8 -16 -4 -43 -9 -60 -12 -46 -7 -75 -14 -93
-19 -10 -3 -31 -8 -47 -10 -17 -3 -50 -10 -75 -16 -25 -7 -56 -14 -69 -16 -13
-3 -31 -9 -40 -13 -9 -5 -20 -9 -26 -9 -5 0 -28 -6 -50 -12 -51 -16 -63 -19
-73 -21 -6 -1 -33 -11 -97 -35 -11 -4 -27 -8 -35 -10 -8 -2 -23 -7 -35 -12
-57 -26 -107 -45 -120 -45 -8 0 -15 -4 -15 -9 0 -4 -7 -8 -14 -8 -23 0 -280
-122 -403 -192 -118 -66 -145 -82 -157 -90 -33 -23 -119 -78 -123 -78 -4 0
-46 -30 -88 -63 -5 -4 -51 -38 -100 -75 -50 -37 -101 -76 -113 -87 -13 -11
-33 -28 -45 -38 -139 -116 -307 -279 -307 -297 0 -7 -3 -10 -6 -7 -4 4 -14 -2
-23 -12 -9 -10 -41 -46 -71 -81 -30 -34 -60 -68 -65 -74 -6 -6 -32 -38 -58
-71 -26 -33 -55 -70 -65 -81 -9 -12 -24 -32 -32 -44 -8 -12 -20 -28 -25 -34
-6 -6 -43 -60 -83 -121 -40 -60 -76 -114 -80 -120 -4 -5 -11 -17 -15 -25 -4
-8 -21 -37 -37 -65 -16 -27 -34 -60 -39 -72 -6 -11 -15 -24 -21 -28 -5 -3 -7
-11 -4 -17 4 -6 2 -13 -4 -17 -10 -6 -79 -139 -115 -221 -49 -113 -97 -232
-97 -243 0 -7 -7 -23 -16 -35 -8 -12 -13 -22 -11 -22 3 0 -8 -36 -24 -80 -15
-44 -26 -80 -22 -80 3 0 0 -7 -7 -15 -7 -8 -10 -15 -7 -15 3 0 -1 -16 -9 -35
-7 -19 -17 -51 -20 -72 -3 -21 -8 -42 -12 -47 -3 -5 -7 -19 -8 -30 -2 -12 -13
-61 -24 -111 -11 -49 -22 -103 -24 -120 -3 -16 -5 -30 -6 -30 -1 0 -3 -11 -5
-25 -2 -14 -6 -41 -9 -60 -4 -19 -9 -57 -12 -85 -3 -27 -7 -61 -9 -74 -13 -76
-20 -236 -19 -456 1 -250 6 -333 20 -356 5 -8 3 -9 -6 -4 -9 5 -11 4 -6 -3 4
-6 9 -33 11 -59 3 -26 8 -64 11 -83 4 -19 8 -48 9 -65 2 -16 4 -30 5 -30 1 0
3 -11 5 -25 2 -14 8 -52 15 -85 6 -33 13 -69 15 -80 4 -25 24 -105 32 -125 3
-8 7 -27 9 -41 2 -14 22 -84 44 -155 22 -71 42 -133 44 -139 2 -5 6 -18 10
-27 4 -9 9 -22 10 -30 2 -7 8 -26 14 -41 7 -16 12 -31 12 -33 0 -3 9 -25 20
-50 23 -50 43 -97 44 -104 4 -21 30 -70 37 -70 5 0 9 -8 9 -19 0 -30 192 -391
212 -399 4 -2 8 -10 8 -18 0 -8 5 -14 10 -14 6 0 10 -5 10 -11 0 -13 61 -109
69 -109 3 0 12 -13 19 -30 7 -16 26 -43 42 -60 16 -17 30 -34 31 -38 3 -15 63
-92 71 -92 4 0 8 -6 8 -12 1 -19 66 -88 75 -80 5 4 5 2 2 -4 -4 -6 18 -38 48
-70 30 -32 55 -60 55 -63 0 -7 271 -269 321 -311 23 -19 60 -52 83 -72 22 -21
46 -38 53 -38 6 0 13 -4 15 -9 5 -13 106 -91 118 -91 5 0 10 -4 10 -10 0 -5 6
-10 14 -10 8 0 16 -3 18 -8 2 -4 32 -27 68 -51 36 -24 66 -48 68 -53 2 -4 9
-8 16 -8 8 0 25 -9 40 -21 14 -11 26 -17 26 -12 0 4 4 3 8 -3 16 -25 403 -230
451 -239 9 -2 18 -4 21 -5 3 -1 8 -2 13 -1 4 0 7 -3 7 -8 0 -5 17 -15 38 -22
20 -6 42 -15 47 -19 6 -4 73 -29 150 -55 77 -26 147 -49 155 -53 8 -3 20 -6
25 -7 6 0 17 -4 25 -7 20 -8 203 -55 266 -68 27 -6 58 -12 69 -15 37 -8 210
-36 250 -40 22 -3 58 -7 80 -9 239 -30 685 -27 908 5 40 5 90 12 112 14 22 3
63 10 90 15 28 6 62 11 78 12 15 1 27 7 27 12 0 5 2 7 5 4 4 -3 25 -1 48 4 79
18 92 21 110 22 9 0 17 5 17 10 0 5 2 7 5 4 3 -3 43 6 88 19 45 13 102 30 127
37 25 8 65 21 90 30 25 9 50 18 55 20 20 6 51 18 85 33 19 8 42 17 50 18 30 7
225 97 232 109 4 6 8 8 8 4 0 -9 268 128 280 143 3 4 21 15 40 25 83 45 326
213 418 290 12 10 34 28 48 39 36 28 110 93 157 137 22 21 44 38 49 38 4 0 8
6 9 13 0 6 18 27 41 44 22 18 38 33 36 33 -2 0 27 33 66 73 100 103 226 248
226 260 0 3 13 19 30 37 16 18 30 36 30 41 0 5 13 23 30 40 16 17 32 40 35 50
4 11 11 19 16 19 5 0 9 6 9 14 0 8 3 16 8 18 8 4 94 132 127 193 14 23 21 46
17 50 -4 5 -2 6 3 2 12 -6 96 152 121 228 22 68 28 122 27 240 -1 106 -3 124
-23 195 -8 25 -13 48 -12 53 1 4 -3 7 -10 7 -6 0 -8 3 -5 7 4 3 2 12 -3 19 -6
6 -12 21 -14 31 -4 21 -44 86 -70 116 -9 9 -16 20 -16 25 0 7 -119 125 -158
155 -12 9 -26 17 -31 17 -5 0 -11 4 -13 8 -3 8 -113 64 -135 69 -7 2 -19 4
-25 6 -7 1 -17 5 -23 8 -9 6 -44 14 -110 26 -29 5 -186 4 -212 -1 -11 -2 -42
-8 -67 -11 -26 -4 -49 -11 -52 -16 -3 -5 -13 -9 -23 -9 -27 0 -164 -73 -218
-117 -86 -68 -151 -144 -194 -223 -13 -25 -27 -46 -31 -48 -5 -2 -8 -10 -8
-17 0 -7 -3 -15 -7 -17 -5 -1 -17 -21 -28 -43 -11 -22 -22 -42 -25 -45 -10 -9
-80 -110 -80 -115 0 -3 -7 -13 -15 -22 -73 -83 -95 -109 -95 -115 0 -3 -38
-45 -85 -93 -47 -47 -85 -91 -85 -97 0 -6 -3 -9 -6 -6 -3 3 -17 -6 -32 -19
-15 -14 -61 -53 -102 -86 -41 -33 -76 -63 -78 -68 -2 -5 -9 -9 -16 -9 -7 0
-21 -9 -31 -20 -10 -11 -24 -20 -32 -20 -7 0 -13 -3 -13 -8 0 -4 -20 -18 -45
-32 -25 -14 -45 -28 -45 -31 0 -4 -12 -12 -27 -18 -16 -6 -50 -25 -78 -41 -56
-32 -114 -61 -131 -64 -7 -1 -18 -7 -25 -13 -8 -6 -54 -26 -104 -45 -49 -19
-99 -39 -110 -43 -24 -10 -21 -9 -67 -18 -21 -5 -38 -12 -38 -18 0 -6 -4 -8
-8 -5 -5 3 -49 -6 -98 -18 -49 -13 -107 -26 -129 -30 -22 -3 -53 -8 -70 -12
-31 -6 -56 -9 -185 -20 -94 -8 -320 -11 -320 -4 0 3 -24 5 -53 5 -28 -1 -56 2
-62 4 -5 3 -21 6 -35 7 -14 0 -47 4 -75 9 -27 4 -57 8 -65 10 -8 1 -42 8 -75
15 -33 8 -67 14 -75 15 -8 0 -19 3 -25 6 -5 3 -30 11 -55 18 -25 8 -62 20 -82
27 -21 8 -38 11 -38 8 0 -4 -6 -1 -13 5 -8 6 -22 12 -33 14 -10 2 -37 12 -59
21 -22 10 -53 23 -69 29 -16 7 -73 34 -125 61 -53 27 -106 54 -118 60 -13 6
-23 14 -23 19 0 4 -5 7 -11 7 -14 0 -181 112 -240 161 -26 22 -49 39 -52 39
-3 0 -20 15 -39 33 -19 17 -65 62 -104 98 -109 105 -194 204 -279 324 -27 39
-52 72 -55 75 -10 10 -70 112 -70 120 0 5 -4 10 -8 12 -22 9 -203 421 -217
495 -2 10 -4 18 -5 18 -1 0 -3 11 -6 25 -2 14 -8 36 -14 50 -5 14 -14 50 -20
80 -5 30 -13 66 -16 80 -3 14 -7 39 -9 55 -2 17 -6 48 -10 70 -21 157 -25 555
-5 595 1 3 2 8 1 12 0 4 3 29 8 55 5 26 12 68 16 93 3 25 15 83 27 129 11 46
21 89 23 95 1 6 5 18 8 26 3 8 20 56 37 105 34 102 29 90 106 250 91 188 212
377 306 476 15 16 25 29 22 29 -6 0 67 80 136 148 25 24 44 49 42 54 -1 5 1 7
6 4 5 -3 16 3 25 12 9 9 35 33 58 52 23 19 51 44 63 55 12 11 25 20 28 20 4 0
17 9 30 20 13 11 36 29 53 39 16 11 34 23 40 28 26 23 151 98 163 98 6 0 12 3
12 8 0 4 24 18 53 31 28 13 60 30 70 39 9 8 17 12 17 7 0 -4 6 -2 13 4 8 6 31
17 53 25 21 8 57 22 79 32 22 10 42 18 45 19 3 0 30 9 60 20 30 10 55 17 55
15 0 -2 10 2 23 9 13 7 31 14 40 16 9 2 56 13 104 24 47 11 99 23 115 26 15 2
39 7 53 10 58 12 218 26 355 30 122 4 174 10 221 26 17 5 41 12 54 14 12 2 27
8 34 13 6 5 23 12 39 16 15 3 27 11 27 16 0 6 7 10 15 10 8 0 15 4 15 8 0 5 6
9 13 9 17 0 67 33 67 44 0 5 6 9 13 9 14 0 110 97 149 150 46 63 124 225 108
225 -2 0 2 9 8 20 24 47 36 223 20 322 -11 69 -58 213 -69 213 -5 0 -9 8 -9
19 0 10 -7 24 -15 31 -8 6 -17 21 -21 32 -18 59 -243 261 -291 261 -7 0 -13 4
-13 9 0 4 -4 8 -9 8 -5 0 -26 7 -47 16 -22 9 -40 16 -41 16 -2 -1 -24 6 -50
15 -36 11 -97 16 -235 18 -103 1 -189 1 -190 -1z"/>
<path d="M6089 6950 c-183 -57 -325 -161 -423 -309 -47 -70 -100 -190 -111
-251 -3 -19 -8 -46 -11 -60 -7 -44 -7 -154 0 -200 94 -562 720 -835 1186 -517
172 118 280 290 325 522 19 96 -5 273 -51 372 -8 17 -14 33 -14 36 0 25 -91
148 -160 217 -69 69 -103 94 -180 133 -52 26 -107 50 -122 53 -15 2 -40 9 -55
16 -16 6 -89 12 -163 13 -123 2 -143 0 -221 -25z"/>
</g>
</svg>
