<?xml version="1.0" encoding="UTF-8" standalone="no"?>
<!-- Generator: Adobe Illustrator 16.0.3, SVG Export Plug-In . SVG Version: 6.00 Build 0)  -->

<svg
   version="1.1"
   id="Vrstva_1"
   x="0px"
   y="0px"
   width="490px"
   height="370px"
   viewBox="0 0 490 370"
   enable-background="new 0 0 490 370"
   xml:space="preserve"
   sodipodi:docname="Not Found.svg"
   inkscape:version="1.2.1 (9c6d41e, 2022-07-14)"
   xmlns:inkscape="http://www.inkscape.org/namespaces/inkscape"
   xmlns:sodipodi="http://sodipodi.sourceforge.net/DTD/sodipodi-0.dtd"
   xmlns="http://www.w3.org/2000/svg"
   xmlns:svg="http://www.w3.org/2000/svg"><defs
   id="defs91" /><sodipodi:namedview
   id="namedview89"
   pagecolor="#ffffff"
   bordercolor="#999999"
   borderopacity="1"
   inkscape:showpageshadow="0"
   inkscape:pageopacity="0"
   inkscape:pagecheckerboard="0"
   inkscape:deskcolor="#d1d1d1"
   showgrid="false"
   inkscape:zoom="1.9486486"
   inkscape:cx="240.9362"
   inkscape:cy="184.74341"
   inkscape:window-width="1920"
   inkscape:window-height="950"
   inkscape:window-x="0"
   inkscape:window-y="25"
   inkscape:window-maximized="1"
   inkscape:current-layer="Vrstva_1" />

<g
   id="monitor"
   transform="translate(0.72750282,0.36300659)">
	
		<radialGradient
   id="Stin_1_"
   cx="-314.7681"
   cy="-5147.623"
   r="92.681999"
   gradientTransform="matrix(1.1835,0,0,-0.1156,617.5279,-261.7174)"
   gradientUnits="userSpaceOnUse">
		<stop
   offset="0"
   style="stop-color:#5E5E5E"
   id="stop3" />
		<stop
   offset="1"
   style="stop-color:#000000;stop-opacity:0"
   id="stop5" />
	</radialGradient>
	<path
   id="Stin"
   fill="url(#Stin_1_)"
   d="m 354.721,333.348 c 0,5.916 -49.13,10.711 -109.723,10.711 -60.593,0 -109.719,-4.795 -109.719,-10.711 0,-5.916 49.126,-10.711 109.719,-10.711 60.596,0 109.723,4.797 109.723,10.713 v -0.002 z"
   style="fill:url(#Stin_1_)" />
	
		<linearGradient
   id="SVGID_1_"
   gradientUnits="userSpaceOnUse"
   x1="-147.5649"
   y1="-242.1563"
   x2="-147.5649"
   y2="-314.64841"
   gradientTransform="matrix(1,0,0,-1,395.2021,18.6992)">
		<stop
   offset="0"
   style="stop-color:#000000"
   id="stop9" />
		<stop
   offset="0.2989"
   style="stop-color:#282826"
   id="stop11" />
		<stop
   offset="0.4809"
   style="stop-color:#A6A5A8"
   id="stop13" />
		<stop
   offset="0.6866"
   style="stop-color:#BABABA"
   id="stop15" />
		<stop
   offset="0.8038"
   style="stop-color:#6E6E6E"
   id="stop17" />
		<stop
   offset="0.9042"
   style="stop-color:#949494"
   id="stop19" />
		<stop
   offset="0.9806"
   style="stop-color:#ABAAAA"
   id="stop21" />
	</linearGradient>
	
		<linearGradient
   id="SVGID_2_"
   gradientUnits="userSpaceOnUse"
   x1="-147.603"
   y1="-241.6563"
   x2="-147.603"
   y2="-315.14841"
   gradientTransform="matrix(1,0,0,-1,395.2021,18.6992)">
		<stop
   offset="0"
   style="stop-color:#000000"
   id="stop24" />
		<stop
   offset="0.199"
   style="stop-color:#282826"
   id="stop26" />
		<stop
   offset="0.3904"
   style="stop-color:#A6A5A8"
   id="stop28" />
		<stop
   offset="0.6217"
   style="stop-color:#BABABA"
   id="stop30" />
		<stop
   offset="0.8211"
   style="stop-color:#A8A8A8"
   id="stop32" />
		<stop
   offset="0.9337"
   style="stop-color:#ADADAD"
   id="stop34" />
		<stop
   offset="0.9951"
   style="stop-color:#C3C2C2"
   id="stop36" />
	</linearGradient>
	<path
   fill="url(#SVGID_1_)"
   stroke="url(#SVGID_2_)"
   stroke-miterlimit="10"
   d="M 306.958,333.348 H 188.317 c 6.832,-4.146 21.208,-9.547 21.984,-18.275 2.197,-24.725 0.182,-54.217 0.182,-54.217 h 70.855 c 0,0 -1.816,32.775 -0.361,55.309 0.535,8.263 19.962,13.339 25.981,17.183 z"
   id="path39"
   style="fill:url(#SVGID_1_);stroke:url(#SVGID_2_)" />
	
		<linearGradient
   id="SVGID_3_"
   gradientUnits="userSpaceOnUse"
   x1="-147.5986"
   y1="-315.043"
   x2="-147.5986"
   y2="-319.6492"
   gradientTransform="matrix(1,0,0,-1,395.2021,18.6992)">
		<stop
   offset="0"
   style="stop-color:#616161"
   id="stop41" />
		<stop
   offset="0.2414"
   style="stop-color:#A6A5A8"
   id="stop43" />
		<stop
   offset="0.5049"
   style="stop-color:#BDBDBD"
   id="stop45" />
		<stop
   offset="0.784"
   style="stop-color:#ABAAAA"
   id="stop47" />
		<stop
   offset="1"
   style="stop-color:#4F4F4F"
   id="stop49" />
	</linearGradient>
	<path
   fill="url(#SVGID_3_)"
   d="M 306.128,338.35 H 188.477 c 0.263,-1.949 -1.942,-4.564 -1.942,-4.564 l 122.137,-0.049 c 0,0.009 -2.697,2.728 -2.544,4.613 v 0 z"
   id="path52"
   style="fill:url(#SVGID_3_)" />
	<path
   d="m 442.101,279.789 c 0,3.1 -2.563,5.611 -5.729,5.611 H 53.631 c -3.163,0 -5.731,-2.512 -5.731,-5.611 V 33.554 c 0,-3.099 2.568,-5.612 5.731,-5.612 h 382.736 c 3.168,0 5.729,2.513 5.729,5.612 v 246.235 z"
   id="path54" />
	<rect
   x="55.178001"
   y="35.209"
   fill="#ffffff"
   width="379.64899"
   height="242.19099"
   id="rect56" />
</g>
<g
   id="_x34_04"
   transform="translate(0.72999954)">
	<rect
   x="54.448002"
   y="34.846001"
   fill="#282e40"
   width="381.104"
   height="242.91701"
   id="rect59" />
	<g
   id="g67">
		<path
   fill="#af9ecb"
   d="m 194.154,128.51 h 16.359 v 0.39 c 0,0.389 -0.295,0.583 -0.884,0.583 h -15.476 v 21.021 h -1.326 v -21.021 h -38.354 c -0.405,0 -0.654,-0.04 -0.746,-0.121 -0.092,-0.081 -0.175,-0.203 -0.249,-0.365 l -0.11,-0.39 40.014,-46.322 h 0.773 z m -1.326,-42.332 c 0,-0.259 0,-0.535 0,-0.827 0,-0.292 0.036,-0.584 0.11,-0.876 l -38.023,44.035 h 37.913 z"
   id="path61" />
		<path
   fill="#af9ecb"
   d="m 272.412,116.443 c 0,5.969 -0.729,11.135 -2.186,15.498 -1.455,4.363 -3.426,7.972 -5.914,10.826 -2.484,2.854 -5.396,4.972 -8.729,6.35 -3.337,1.379 -6.859,2.068 -10.584,2.068 -3.722,0 -7.25,-0.689 -10.584,-2.068 -3.335,-1.378 -6.246,-3.495 -8.733,-6.35 -2.486,-2.854 -4.458,-6.463 -5.913,-10.826 -1.456,-4.363 -2.183,-9.529 -2.183,-15.498 0,-5.968 0.727,-11.134 2.183,-15.498 1.455,-4.362 3.427,-7.979 5.913,-10.85 2.487,-2.871 5.398,-5.004 8.733,-6.399 3.334,-1.394 6.862,-2.092 10.584,-2.092 3.725,0 7.247,0.698 10.584,2.092 3.334,1.395 6.244,3.528 8.729,6.399 2.488,2.871 4.459,6.488 5.914,10.85 1.46,4.364 2.186,9.53 2.186,15.498 z m -1.435,0 c 0,-5.839 -0.688,-10.882 -2.07,-15.132 -1.383,-4.249 -3.254,-7.761 -5.609,-10.534 -2.355,-2.774 -5.109,-4.834 -8.263,-6.18 -3.15,-1.346 -6.494,-2.02 -10.03,-2.02 -3.537,0 -6.893,0.673 -10.059,2.02 -3.17,1.346 -5.941,3.405 -8.318,6.18 -2.376,2.772 -4.256,6.285 -5.638,10.534 -1.382,4.25 -2.072,9.293 -2.072,15.132 0,5.839 0.69,10.884 2.072,15.133 1.382,4.25 3.262,7.753 5.638,10.51 2.377,2.758 5.148,4.801 8.318,6.13 3.167,1.331 6.521,1.995 10.059,1.995 3.536,0 6.88,-0.664 10.03,-1.995 3.149,-1.329 5.903,-3.373 8.263,-6.13 2.355,-2.756 4.229,-6.26 5.609,-10.51 1.377,-4.249 2.07,-9.294 2.07,-15.133 z"
   id="path63" />
		<path
   fill="#af9ecb"
   d="m 322.373,128.51 h 16.355 v 0.39 c 0,0.389 -0.295,0.583 -0.883,0.583 h -15.474 v 21.021 h -1.326 v -21.021 h -38.354 c -0.404,0 -0.653,-0.04 -0.744,-0.121 -0.096,-0.081 -0.178,-0.203 -0.249,-0.365 l -0.11,-0.39 40.018,-46.322 h 0.771 z m -1.326,-42.332 c 0,-0.259 0,-0.535 0,-0.827 0,-0.292 0.035,-0.584 0.11,-0.876 l -38.021,44.035 h 37.911 z"
   id="path65" />
	</g>
	<g
   id="g85">
		<path
   fill="#af9ecb"
   d="m 111.171,192.264 v 0.781 c 0,0.391 -0.279,0.725 -0.726,0.725 -0.334,0 -0.725,-0.334 -0.725,-0.725 v -2.789 -0.223 c 0,-0.223 0.111,-0.391 0.279,-0.557 0.39,-0.227 0.78,-0.166 1.004,0.107 l 1.672,2.346 c 0.224,0.275 0.168,0.725 -0.167,1.004 -0.111,0.055 -0.278,0.055 -0.446,0.055 -0.223,0 -0.446,-0.055 -0.558,-0.277 z m -1.45,3.625 c 0,-0.445 0.391,-0.725 0.725,-0.725 0.446,0 0.726,0.279 0.726,0.725 v 2.844 c 0,0.334 -0.279,0.668 -0.726,0.668 -0.334,0 -0.725,-0.334 -0.725,-0.668 z m 0,5.631 c 0,-0.391 0.391,-0.668 0.725,-0.668 0.446,0 0.726,0.277 0.726,0.668 v 2.848 c 0,0.334 -0.279,0.723 -0.726,0.723 -0.334,0 -0.725,-0.389 -0.725,-0.723 z m 0,5.687 c 0,-0.445 0.391,-0.725 0.725,-0.725 0.446,0 0.726,0.275 0.726,0.725 v 2.787 c 0,0.336 -0.279,0.727 -0.726,0.727 -0.334,0 -0.725,-0.391 -0.725,-0.727 z m 0,5.633 c 0,-0.447 0.391,-0.727 0.725,-0.727 0.446,0 0.726,0.279 0.726,0.727 v 2.787 c 0,0.389 -0.279,0.725 -0.726,0.725 -0.334,0 -0.725,-0.336 -0.725,-0.725 z m 0,5.631 c 0,-0.447 0.391,-0.727 0.725,-0.727 0.446,0 0.726,0.279 0.726,0.727 v 2.842 c 0,0.336 -0.279,0.67 -0.726,0.67 -0.334,0 -0.725,-0.334 -0.725,-0.67 z m 0,5.631 c 0,-0.391 0.391,-0.67 0.725,-0.67 0.446,0 0.726,0.279 0.726,0.67 v 2.844 c 0,0.334 -0.279,0.729 -0.726,0.729 -0.334,0 -0.725,-0.395 -0.725,-0.729 z m 3.457,-29.049 c -0.224,-0.391 -0.111,-0.781 0.167,-1.004 0.279,-0.225 0.781,-0.111 1.004,0.166 l 1.617,2.287 c 0.278,0.277 0.167,0.725 -0.167,0.949 -0.112,0.111 -0.279,0.111 -0.391,0.111 -0.223,0 -0.446,-0.061 -0.613,-0.279 z m 3.29,4.57 c -0.224,-0.334 -0.167,-0.779 0.167,-1.002 0.279,-0.279 0.725,-0.168 1.004,0.166 l 1.617,2.23 c 0.223,0.391 0.167,0.777 -0.111,1.004 -0.168,0.168 -0.279,0.168 -0.447,0.168 -0.223,0 -0.445,-0.111 -0.557,-0.279 z m 3.289,4.574 c -0.223,-0.336 -0.167,-0.781 0.224,-0.949 0.278,-0.279 0.669,-0.223 0.893,0.111 l 1.728,2.287 c 0.168,0.334 0.112,0.775 -0.167,0.941 -0.111,0.17 -0.278,0.17 -0.391,0.17 -0.223,0 -0.445,-0.057 -0.612,-0.275 z m 3.345,4.516 c -0.224,-0.279 -0.167,-0.67 0.112,-0.893 0.334,-0.279 0.78,-0.229 1.004,0.111 l 1.672,2.283 c 0.223,0.334 0.167,0.779 -0.224,1.002 -0.056,0.061 -0.166,0.111 -0.39,0.111 -0.224,0 -0.446,-0.059 -0.558,-0.279 z m 3.29,4.627 c -0.223,-0.279 -0.167,-0.727 0.168,-1.004 0.278,-0.223 0.725,-0.168 0.948,0.223 l 1.616,2.23 c 0.279,0.391 0.224,0.781 -0.111,1.004 -0.167,0.057 -0.279,0.111 -0.446,0.111 -0.223,0 -0.39,-0.055 -0.557,-0.277 z m 3.29,4.572 c -0.278,-0.279 -0.167,-0.725 0.168,-1.004 0.278,-0.223 0.725,-0.111 1.003,0.223 l 1.617,2.287 c 0.223,0.334 0.111,0.725 -0.167,0.947 -0.111,0.057 -0.279,0.168 -0.391,0.168 -0.224,0 -0.446,-0.168 -0.558,-0.279 z m 3.29,4.572 c -0.224,-0.279 -0.168,-0.781 0.223,-1.004 0.279,-0.168 0.669,-0.111 0.893,0.223 l 1.672,2.287 c 0.224,0.277 0.168,0.779 -0.111,1.004 -0.167,0.055 -0.278,0.111 -0.445,0.111 -0.224,0 -0.391,-0.111 -0.558,-0.279 z m 3.29,4.573 c -0.224,-0.279 -0.112,-0.725 0.167,-0.947 0.167,-0.109 0.39,-0.17 0.558,-0.109 v -1.896 c 0,-0.392 0.334,-0.67 0.725,-0.67 0.391,0 0.669,0.278 0.669,0.67 v 2.845 c 0,0.166 -0.056,0.334 -0.167,0.5 0.056,0.278 -0.056,0.561 -0.335,0.78 -0.056,0.06 -0.167,0.06 -0.334,0.06 -0.278,0 -0.502,-0.06 -0.614,-0.279 z m 0.724,-36.801 c 0,-0.445 0.334,-0.725 0.725,-0.725 0.391,0 0.669,0.279 0.669,0.725 v 2.789 c 0,0.391 -0.278,0.725 -0.669,0.725 -0.391,0 -0.725,-0.334 -0.725,-0.725 z m 0,5.633 c 0,-0.445 0.334,-0.725 0.725,-0.725 0.391,0 0.669,0.279 0.669,0.725 v 2.844 c 0,0.334 -0.278,0.668 -0.669,0.668 -0.391,0 -0.725,-0.334 -0.725,-0.668 z m 0,5.631 c 0,-0.391 0.334,-0.668 0.725,-0.668 0.391,0 0.669,0.277 0.669,0.668 v 2.848 c 0,0.334 -0.278,0.723 -0.669,0.723 -0.391,0 -0.725,-0.389 -0.725,-0.723 z m 0,5.687 c 0,-0.445 0.334,-0.725 0.725,-0.725 0.391,0 0.669,0.275 0.669,0.725 v 2.787 c 0,0.336 -0.278,0.727 -0.669,0.727 -0.391,0 -0.725,-0.391 -0.725,-0.727 z m 0,5.633 c 0,-0.447 0.334,-0.727 0.725,-0.727 0.391,0 0.669,0.279 0.669,0.727 v 2.787 c 0,0.389 -0.278,0.725 -0.669,0.725 -0.391,0 -0.725,-0.336 -0.725,-0.725 z m 0,5.631 c 0,-0.447 0.334,-0.727 0.725,-0.727 0.391,0 0.669,0.279 0.669,0.727 v 2.842 c 0,0.336 -0.278,0.67 -0.669,0.67 -0.391,0 -0.725,-0.334 -0.725,-0.67 z"
   id="path69" />
		<path
   fill="#af9ecb"
   d="m 150.817,214.621 c 0,-0.834 0.056,-1.727 0.278,-2.564 0.057,-0.334 0.446,-0.668 0.78,-0.613 0.447,0.111 0.614,0.447 0.559,0.896 -0.111,0.781 -0.224,1.508 -0.224,2.285 0,0.168 0,0.229 0,0.275 0,0.447 -0.278,0.781 -0.613,0.781 -0.056,0 -0.056,0 -0.056,0 -0.39,0 -0.725,-0.334 -0.725,-0.725 0.001,-0.11 0.001,-0.167 0.001,-0.335 z m 0.335,3.291 c -0.057,-0.391 0.223,-0.725 0.557,-0.836 0.335,-0.168 0.781,0.111 0.837,0.5 0.223,0.895 0.502,1.729 0.836,2.51 0.223,0.336 0,0.779 -0.334,0.893 -0.056,0.111 -0.111,0.111 -0.279,0.111 -0.278,0 -0.445,-0.166 -0.613,-0.447 -0.447,-0.836 -0.725,-1.782 -1.004,-2.731 z m 0.724,-8.697 c 0.447,-0.893 0.837,-1.785 1.395,-2.564 0.223,-0.391 0.726,-0.391 1.004,-0.225 0.334,0.225 0.39,0.613 0.167,1.004 -0.445,0.668 -0.893,1.449 -1.227,2.287 -0.167,0.277 -0.391,0.502 -0.669,0.502 -0.111,0 -0.223,-0.059 -0.223,-0.059 -0.39,-0.166 -0.614,-0.556 -0.447,-0.945 z m 1.841,13.937 c -0.335,-0.279 -0.224,-0.668 0.111,-0.947 0.278,-0.223 0.669,-0.166 0.948,0.111 0.502,0.725 1.17,1.34 1.84,2.008 0.278,0.168 0.278,0.613 0.111,0.947 -0.167,0.107 -0.39,0.223 -0.613,0.223 -0.111,0 -0.279,-0.111 -0.391,-0.111 -0.78,-0.668 -1.449,-1.338 -2.006,-2.231 z m 1.506,-18.734 c 0.724,-0.723 1.505,-1.281 2.397,-1.783 0.278,-0.168 0.78,-0.055 0.892,0.223 0.223,0.336 0.056,0.781 -0.223,1.004 -0.78,0.395 -1.45,0.947 -2.175,1.51 -0.111,0.168 -0.279,0.223 -0.391,0.223 -0.223,0 -0.445,-0.055 -0.558,-0.223 -0.222,-0.286 -0.222,-0.675 0.058,-0.954 z m 2.954,22.527 c -0.39,-0.168 -0.501,-0.563 -0.39,-0.896 0.224,-0.336 0.669,-0.502 1.004,-0.336 0.78,0.396 1.617,0.67 2.453,0.896 0.446,0.056 0.669,0.445 0.558,0.834 -0.056,0.336 -0.391,0.56 -0.669,0.56 -0.112,0 -0.168,0 -0.168,0 -1.004,-0.278 -1.951,-0.558 -2.788,-1.058 z m 2.175,-25.482 c 0.892,-0.277 1.895,-0.445 2.898,-0.5 0.391,0 0.725,0.277 0.725,0.725 0,0.395 -0.278,0.668 -0.725,0.668 -0.892,0.111 -1.729,0.229 -2.564,0.447 -0.056,0.055 -0.167,0.055 -0.167,0.055 -0.279,0 -0.614,-0.223 -0.67,-0.502 -0.111,-0.391 0.056,-0.78 0.503,-0.893 z m 3.512,25.426 c 0.892,0 1.841,-0.111 2.62,-0.334 0.391,-0.111 0.726,0.111 0.893,0.502 0,0.389 -0.167,0.729 -0.502,0.895 -1.004,0.168 -1.951,0.336 -2.955,0.336 -0.445,0 -0.669,-0.279 -0.669,-0.729 -0.111,-0.336 0.224,-0.67 0.613,-0.67 z m 2.119,-24.309 c -0.446,-0.113 -0.67,-0.391 -0.614,-0.781 0.057,-0.391 0.447,-0.613 0.838,-0.559 1.003,0.223 1.895,0.502 2.843,0.949 0.334,0.166 0.446,0.609 0.278,0.943 -0.111,0.227 -0.391,0.395 -0.613,0.395 -0.111,0 -0.278,0 -0.278,-0.111 -0.782,-0.334 -1.673,-0.613 -2.454,-0.836 z m 2.899,22.971 c 0.781,-0.445 1.563,-0.893 2.176,-1.506 0.278,-0.223 0.78,-0.168 1.003,0.111 0.279,0.279 0.279,0.67 -0.111,0.949 -0.669,0.668 -1.506,1.227 -2.342,1.672 -0.168,0.111 -0.224,0.111 -0.391,0.111 -0.167,0 -0.502,-0.111 -0.613,-0.334 -0.168,-0.39 -0.001,-0.781 0.278,-1.003 z m 1.784,-20.742 c -0.278,-0.223 -0.39,-0.607 -0.167,-0.947 0.279,-0.334 0.67,-0.334 0.948,-0.107 0.78,0.561 1.505,1.281 2.119,2.119 0.334,0.275 0.223,0.725 -0.056,1.004 -0.111,0.059 -0.335,0.105 -0.503,0.105 -0.167,0 -0.39,-0.105 -0.557,-0.273 -0.501,-0.73 -1.114,-1.343 -1.784,-1.901 z m 2.175,17.285 c 0.559,-0.668 0.948,-1.451 1.339,-2.287 0.111,-0.334 0.502,-0.502 0.892,-0.334 0.335,0.111 0.502,0.563 0.391,0.896 -0.391,0.943 -0.893,1.729 -1.45,2.617 -0.111,0.111 -0.39,0.277 -0.557,0.277 -0.168,0 -0.279,-0.111 -0.447,-0.166 -0.335,-0.224 -0.391,-0.726 -0.168,-1.003 z M 173.9,208.99 c -0.167,-0.391 0,-0.779 0.279,-0.947 0.39,-0.223 0.78,-0.111 1.004,0.279 0.39,0.836 0.78,1.838 1.003,2.729 0.056,0.393 -0.167,0.781 -0.502,0.895 -0.111,0 -0.111,0 -0.223,0 -0.278,0 -0.558,-0.223 -0.613,-0.557 -0.222,-0.836 -0.557,-1.672 -0.948,-2.399 z m 1.06,8.309 c 0.168,-0.836 0.224,-1.783 0.224,-2.678 0,-0.166 0,-0.334 0,-0.557 0,-0.395 0.278,-0.668 0.725,-0.779 0.334,0 0.725,0.277 0.725,0.725 0,0.166 0,0.445 0,0.611 0,1.061 -0.111,2.008 -0.335,2.955 -0.056,0.336 -0.334,0.559 -0.725,0.559 0,0 0,0 -0.111,0 -0.335,-0.057 -0.559,-0.502 -0.503,-0.836 z"
   id="path71" />
		<path
   fill="#af9ecb"
   d="m 183.048,201.631 c 0,-0.391 0.334,-0.725 0.725,-0.725 h 2.788 c 0.39,0 0.725,0.334 0.725,0.725 0,0.391 -0.335,0.67 -0.725,0.67 h -2.788 c -0.391,0 -0.725,-0.28 -0.725,-0.67 z m 4.739,-11.598 c 0,-0.391 0.334,-0.723 0.726,-0.723 0.39,0 0.724,0.332 0.724,0.723 v 2.844 c 0,0.391 -0.334,0.67 -0.724,0.67 -0.392,0 -0.726,-0.279 -0.726,-0.67 z m 0,5.633 c 0,-0.391 0.334,-0.67 0.726,-0.67 0.39,0 0.724,0.279 0.724,0.67 v 2.844 c 0,0.389 -0.334,0.725 -0.724,0.725 -0.392,0 -0.726,-0.336 -0.726,-0.725 z m 0,5.686 c 0,-0.389 0.334,-0.723 0.726,-0.723 0.39,0 0.724,0.334 0.724,0.723 v 2.789 c 0,0.393 -0.334,0.729 -0.724,0.729 -0.392,0 -0.726,-0.336 -0.726,-0.729 z m 0,5.63 c 0,-0.395 0.334,-0.727 0.726,-0.727 0.39,0 0.724,0.332 0.724,0.727 v 2.844 c 0,0.393 -0.334,0.672 -0.724,0.672 -0.392,0 -0.726,-0.279 -0.726,-0.672 z m 0,5.631 c 0,-0.389 0.334,-0.668 0.726,-0.668 0.39,0 0.724,0.279 0.724,0.668 v 2.846 c 0,0.391 -0.334,0.725 -0.724,0.725 -0.392,0 -0.726,-0.334 -0.726,-0.725 z m 0,5.69 c 0,-0.391 0.334,-0.727 0.726,-0.727 0.39,0 0.724,0.336 0.724,0.727 v 2.787 c 0,0.391 -0.334,0.725 -0.724,0.725 -0.392,0 -0.726,-0.334 -0.726,-0.725 z m 0,5.799 v -0.168 c 0,-0.389 0.334,-0.725 0.726,-0.725 0.39,0 0.724,0.336 0.724,0.725 v 0.168 c 0,0.729 0.279,1.449 0.726,1.951 0.278,0.279 0.278,0.725 0,1.004 -0.168,0.111 -0.335,0.166 -0.502,0.166 -0.167,0 -0.391,-0.055 -0.502,-0.223 -0.726,-0.779 -1.172,-1.783 -1.172,-2.898 z m 1.951,-22.471 c 0,-0.391 0.335,-0.725 0.725,-0.725 h 2.788 c 0.391,0 0.726,0.334 0.726,0.725 0,0.391 -0.335,0.67 -0.726,0.67 h -2.788 c -0.39,0 -0.725,-0.28 -0.725,-0.67 z m 1.505,25.982 c 0,-0.391 0.336,-0.668 0.726,-0.668 0.056,0 0.056,0 0.111,0 0.391,0 0.67,0.334 0.67,0.725 0,0.391 -0.279,0.668 -0.67,0.668 -0.056,0 -0.111,0 -0.111,0 -0.39,0 -0.726,-0.334 -0.726,-0.725 z"
   id="path73" />
		<path
   fill="#af9ecb"
   d="m 225.537,189.979 c 0,-0.443 0.334,-0.725 0.725,-0.725 h 0.167 2.844 c 0.446,0 0.725,0.277 0.725,0.725 0,0.334 -0.278,0.729 -0.725,0.729 h -2.286 v 2.174 c 0,0.334 -0.278,0.729 -0.725,0.729 -0.391,0 -0.725,-0.395 -0.725,-0.729 z m 0,5.798 c 0,-0.447 0.334,-0.729 0.725,-0.729 0.446,0 0.725,0.277 0.725,0.729 v 2.896 c 0,0.336 -0.278,0.67 -0.725,0.67 -0.391,0 -0.725,-0.334 -0.725,-0.67 z m 0,5.743 c 0,-0.391 0.334,-0.725 0.725,-0.725 0.446,0 0.725,0.334 0.725,0.725 v 2.898 c 0,0.391 -0.278,0.727 -0.725,0.727 -0.391,0 -0.725,-0.336 -0.725,-0.727 z m 0,5.798 c 0,-0.445 0.334,-0.729 0.725,-0.729 0.446,0 0.725,0.281 0.725,0.729 v 1.17 h 2.286 c 0.446,0 0.725,0.336 0.725,0.727 0,0.443 -0.278,0.723 -0.725,0.723 h -2.286 v 0.281 c 0,0.334 -0.278,0.723 -0.725,0.723 -0.391,0 -0.725,-0.389 -0.725,-0.723 z m 0,5.799 c 0,-0.447 0.334,-0.725 0.725,-0.725 0.446,0 0.725,0.273 0.725,0.725 v 2.898 c 0,0.336 -0.278,0.725 -0.725,0.725 -0.391,0 -0.725,-0.389 -0.725,-0.725 z m 0,5.744 c 0,-0.395 0.334,-0.672 0.725,-0.672 0.446,0 0.725,0.281 0.725,0.672 v 2.896 c 0,0.394 -0.278,0.728 -0.725,0.728 -0.391,0 -0.725,-0.334 -0.725,-0.728 z m 0,5.797 c 0,-0.445 0.334,-0.725 0.725,-0.725 0.446,0 0.725,0.275 0.725,0.725 v 2.9 c 0,0.389 -0.278,0.725 -0.725,0.725 -0.391,0 -0.725,-0.336 -0.725,-0.725 z m 6.635,-33.955 c -0.446,0 -0.725,-0.391 -0.725,-0.725 0,-0.447 0.278,-0.729 0.725,-0.729 h 2.899 c 0.446,0 0.726,0.273 0.726,0.729 0,0.334 -0.279,0.725 -0.726,0.725 z m 0,19.235 c -0.446,0 -0.725,-0.275 -0.725,-0.723 0,-0.391 0.278,-0.727 0.725,-0.727 h 2.899 c 0.446,0 0.726,0.336 0.726,0.727 0,0.443 -0.279,0.723 -0.726,0.723 z m 5.8,-19.235 c -0.444,0 -0.726,-0.391 -0.726,-0.725 0,-0.447 0.278,-0.729 0.726,-0.729 h 2.899 c 0.444,0 0.726,0.273 0.726,0.729 0,0.334 -0.279,0.725 -0.726,0.725 z m 0,19.235 c -0.444,0 -0.726,-0.275 -0.726,-0.723 0,-0.391 0.278,-0.727 0.726,-0.727 h 2.899 c 0.444,0 0.726,0.336 0.726,0.727 0,0.443 -0.279,0.723 -0.726,0.723 z m 5.797,-19.235 c -0.444,0 -0.726,-0.391 -0.726,-0.725 0,-0.447 0.279,-0.729 0.726,-0.729 h 2.898 c 0.394,0 0.669,0.273 0.669,0.729 0,0.334 -0.275,0.725 -0.669,0.725 z m 0,19.235 c -0.444,0 -0.726,-0.275 -0.726,-0.723 0,-0.391 0.279,-0.727 0.726,-0.727 h 1.34 c 0.446,0 0.725,0.336 0.725,0.727 0,0.443 -0.277,0.723 -0.725,0.723 z"
   id="path75" />
		<path
   fill="#af9ecb"
   d="m 253.309,214.621 c 0,-0.834 0.058,-1.727 0.276,-2.564 0.06,-0.334 0.444,-0.668 0.78,-0.613 0.443,0.111 0.611,0.447 0.56,0.896 -0.11,0.781 -0.225,1.508 -0.225,2.285 0,0.168 0,0.229 0,0.275 0,0.447 -0.279,0.781 -0.614,0.781 -0.057,0 -0.057,0 -0.057,0 -0.391,0 -0.725,-0.334 -0.725,-0.725 0.005,-0.11 0.005,-0.167 0.005,-0.335 z m 0.334,3.291 c -0.059,-0.391 0.224,-0.725 0.559,-0.836 0.334,-0.168 0.777,0.111 0.836,0.5 0.227,0.895 0.502,1.729 0.837,2.51 0.226,0.336 0,0.779 -0.335,0.893 -0.059,0.111 -0.109,0.111 -0.275,0.111 -0.279,0 -0.447,-0.166 -0.613,-0.447 -0.454,-0.836 -0.733,-1.782 -1.009,-2.731 z m 0.722,-8.697 c 0.443,-0.893 0.837,-1.785 1.396,-2.564 0.224,-0.391 0.726,-0.391 1.005,-0.225 0.334,0.225 0.392,0.613 0.168,1.004 -0.447,0.668 -0.896,1.449 -1.229,2.287 -0.168,0.277 -0.394,0.502 -0.67,0.502 -0.111,0 -0.226,-0.059 -0.226,-0.059 -0.388,-0.166 -0.611,-0.556 -0.444,-0.945 z m 1.841,13.937 c -0.335,-0.279 -0.226,-0.668 0.108,-0.947 0.279,-0.223 0.672,-0.166 0.947,0.111 0.502,0.725 1.172,1.34 1.84,2.008 0.278,0.168 0.278,0.613 0.111,0.947 -0.168,0.107 -0.391,0.223 -0.611,0.223 -0.109,0 -0.277,-0.111 -0.393,-0.111 -0.774,-0.668 -1.442,-1.338 -2.002,-2.231 z m 1.505,-18.734 c 0.729,-0.723 1.507,-1.281 2.396,-1.783 0.278,-0.168 0.781,-0.055 0.894,0.223 0.226,0.336 0.058,0.781 -0.222,1.004 -0.78,0.395 -1.449,0.947 -2.176,1.51 -0.109,0.168 -0.277,0.223 -0.393,0.223 -0.225,0 -0.445,-0.055 -0.559,-0.223 -0.217,-0.286 -0.217,-0.675 0.06,-0.954 z m 2.953,22.527 c -0.391,-0.168 -0.501,-0.563 -0.391,-0.896 0.225,-0.336 0.668,-0.502 1.006,-0.336 0.777,0.396 1.613,0.67 2.449,0.896 0.447,0.056 0.674,0.445 0.561,0.834 -0.059,0.336 -0.391,0.56 -0.669,0.56 -0.109,0 -0.167,0 -0.167,0 -1.003,-0.278 -1.951,-0.558 -2.789,-1.058 z m 2.179,-25.482 c 0.892,-0.277 1.896,-0.445 2.896,-0.5 0.392,0 0.729,0.277 0.729,0.725 0,0.395 -0.28,0.668 -0.729,0.668 -0.893,0.111 -1.729,0.229 -2.563,0.447 -0.056,0.055 -0.164,0.055 -0.164,0.055 -0.278,0 -0.612,-0.223 -0.671,-0.502 -0.114,-0.391 0.052,-0.78 0.502,-0.893 z m 3.511,25.426 c 0.892,0 1.838,-0.111 2.619,-0.334 0.391,-0.111 0.727,0.111 0.894,0.502 0,0.389 -0.167,0.729 -0.503,0.895 -1.004,0.168 -1.95,0.336 -2.953,0.336 -0.447,0 -0.672,-0.279 -0.672,-0.729 -0.112,-0.336 0.223,-0.67 0.615,-0.67 z m 2.121,-24.309 c -0.447,-0.113 -0.67,-0.391 -0.615,-0.781 0.059,-0.391 0.447,-0.613 0.836,-0.559 1.007,0.223 1.896,0.502 2.848,0.949 0.333,0.166 0.443,0.609 0.277,0.943 -0.11,0.227 -0.394,0.395 -0.613,0.395 -0.109,0 -0.277,0 -0.277,-0.111 -0.788,-0.334 -1.679,-0.613 -2.456,-0.836 z m 2.895,22.971 c 0.778,-0.445 1.563,-0.893 2.175,-1.506 0.278,-0.223 0.781,-0.168 1.007,0.111 0.276,0.279 0.276,0.67 -0.11,0.949 -0.672,0.668 -1.508,1.227 -2.344,1.672 -0.168,0.111 -0.226,0.111 -0.392,0.111 -0.167,0 -0.503,-0.111 -0.613,-0.334 -0.169,-0.39 0,-0.781 0.277,-1.003 z m 1.784,-20.742 c -0.278,-0.223 -0.393,-0.607 -0.166,-0.947 0.275,-0.334 0.668,-0.334 0.945,-0.107 0.781,0.561 1.506,1.281 2.119,2.119 0.334,0.275 0.223,0.725 -0.058,1.004 -0.11,0.059 -0.335,0.105 -0.502,0.105 -0.168,0 -0.392,-0.105 -0.558,-0.273 -0.496,-0.73 -1.111,-1.343 -1.78,-1.901 z m 2.175,17.285 c 0.56,-0.668 0.946,-1.451 1.339,-2.287 0.111,-0.334 0.502,-0.502 0.895,-0.334 0.334,0.111 0.502,0.563 0.392,0.896 -0.392,0.943 -0.894,1.729 -1.449,2.617 -0.11,0.111 -0.391,0.277 -0.56,0.277 -0.168,0 -0.277,-0.111 -0.444,-0.166 -0.34,-0.224 -0.398,-0.726 -0.173,-1.003 z m 1.062,-13.104 c -0.166,-0.391 0,-0.779 0.277,-0.947 0.393,-0.223 0.781,-0.111 1.004,0.279 0.393,0.836 0.779,1.838 1.006,2.729 0.055,0.393 -0.169,0.781 -0.503,0.895 -0.11,0 -0.11,0 -0.225,0 -0.278,0 -0.56,-0.223 -0.613,-0.557 -0.223,-0.836 -0.558,-1.672 -0.946,-2.399 z m 1.058,8.309 c 0.167,-0.836 0.223,-1.783 0.223,-2.678 0,-0.166 0,-0.334 0,-0.557 0,-0.395 0.278,-0.668 0.727,-0.779 0.334,0 0.727,0.277 0.727,0.725 0,0.166 0,0.445 0,0.611 0,1.061 -0.109,2.008 -0.335,2.955 -0.058,0.336 -0.335,0.559 -0.726,0.559 0,0 0,0 -0.11,0 -0.339,-0.057 -0.562,-0.502 -0.506,-0.836 z"
   id="path77" />
		<path
   fill="#af9ecb"
   d="m 287.989,201.631 c 0,-0.334 0.335,-0.668 0.726,-0.668 0.393,0 0.672,0.334 0.672,0.668 v 1.953 c 0,0.389 -0.279,0.723 -0.672,0.723 -0.391,0 -0.726,-0.334 -0.726,-0.723 z m 0,4.795 c 0,-0.445 0.335,-0.723 0.726,-0.723 0.393,0 0.672,0.277 0.672,0.723 v 2.789 c 0,0.389 -0.279,0.723 -0.672,0.723 -0.391,0 -0.726,-0.334 -0.726,-0.723 z m 0,5.631 c 0,-0.445 0.335,-0.725 0.726,-0.725 0.393,0 0.672,0.279 0.672,0.725 v 2.732 c 0,0.391 -0.279,0.727 -0.672,0.727 -0.391,0 -0.726,-0.336 -0.726,-0.727 z m 0,5.576 c 0,-0.334 0.276,-0.725 0.726,-0.725 0.393,0 0.672,0.279 0.672,0.725 0.108,0.838 0.223,1.729 0.443,2.51 0.109,0.445 -0.059,0.781 -0.443,0.896 -0.059,0 -0.169,0 -0.169,0 -0.336,0 -0.612,-0.111 -0.727,-0.447 -0.278,-0.951 -0.446,-1.899 -0.502,-2.959 z m 1.782,5.687 c -0.276,-0.334 -0.109,-0.781 0.168,-1.004 0.334,-0.227 0.779,-0.111 1.002,0.223 0.504,0.725 1.008,1.395 1.729,1.953 0.279,0.277 0.279,0.725 0,1.002 -0.108,0.111 -0.274,0.223 -0.442,0.223 -0.168,0 -0.394,0 -0.504,-0.166 -0.723,-0.613 -1.451,-1.395 -1.953,-2.231 z m 4.461,3.903 c -0.334,-0.166 -0.502,-0.611 -0.334,-0.947 0.166,-0.391 0.559,-0.559 0.894,-0.275 0.781,0.336 1.617,0.611 2.51,0.777 0.392,0 0.671,0.395 0.56,0.781 -0.057,0.393 -0.334,0.561 -0.67,0.561 -0.109,0 -0.109,0 -0.166,0 -1.008,-0.173 -1.956,-0.45 -2.794,-0.897 z m 5.689,-0.334 c 0.896,-0.111 1.729,-0.277 2.513,-0.613 0.334,-0.166 0.727,0.061 0.894,0.395 0.167,0.395 -0.058,0.775 -0.446,0.896 -0.893,0.389 -1.84,0.557 -2.843,0.725 -0.058,0 -0.058,0 -0.058,0 -0.336,0 -0.729,-0.279 -0.729,-0.613 -0.057,-0.456 0.225,-0.79 0.669,-0.79 z m 4.797,-1.895 c 0.728,-0.502 1.341,-1.117 1.841,-1.842 0.277,-0.279 0.728,-0.334 1.004,-0.166 0.336,0.334 0.336,0.725 0.11,1.059 -0.612,0.781 -1.339,1.506 -2.063,2.064 -0.166,0.166 -0.334,0.166 -0.443,0.166 -0.227,0 -0.446,-0.111 -0.561,-0.279 -0.28,-0.279 -0.224,-0.725 0.112,-1.002 z m 3.177,-4.07 c 0.277,-0.781 0.445,-1.619 0.611,-2.51 0.112,-0.336 0.445,-0.615 0.78,-0.615 0.394,0.057 0.61,0.391 0.61,0.783 -0.108,1.002 -0.334,2.006 -0.777,2.898 -0.059,0.275 -0.334,0.443 -0.613,0.443 -0.056,0 -0.165,0 -0.275,-0.109 -0.336,-0.111 -0.502,-0.501 -0.336,-0.89 z m 0.726,-19.293 c 0,-0.334 0.275,-0.668 0.668,-0.668 0.393,0 0.727,0.334 0.727,0.668 v 2.844 c 0,0.445 -0.334,0.67 -0.727,0.67 -0.393,0 -0.668,-0.225 -0.668,-0.67 z m 0,5.633 c 0,-0.336 0.275,-0.672 0.668,-0.672 0.393,0 0.727,0.336 0.727,0.672 v 2.785 c 0,0.449 -0.334,0.727 -0.727,0.727 -0.393,0 -0.668,-0.273 -0.668,-0.727 z m 0,5.576 c 0,-0.338 0.275,-0.672 0.668,-0.672 0.393,0 0.727,0.334 0.727,0.672 v 2.842 c 0,0.445 -0.334,0.67 -0.727,0.67 -0.393,0 -0.668,-0.225 -0.668,-0.67 z"
   id="path79" />
		<path
   fill="#af9ecb"
   d="m 321.393,201.688 c 0,-0.391 0.276,-0.725 0.727,-0.725 0.334,0 0.669,0.334 0.669,0.725 v 2.787 c 0,0.445 -0.335,0.729 -0.669,0.729 -0.446,0 -0.727,-0.281 -0.727,-0.729 z m 0.723,9.755 c -0.446,0 -0.728,-0.334 -0.669,-0.779 v -0.223 c -0.059,-0.111 -0.059,-0.227 -0.059,-0.396 v -2.781 c 0,-0.34 0.277,-0.676 0.728,-0.676 0.334,0 0.669,0.336 0.669,0.676 v 0.107 c 0.058,0 0.168,0 0.277,0.055 0.334,0.111 0.56,0.506 0.445,0.896 -0.392,0.836 -0.613,1.672 -0.613,2.508 -0.109,0.447 -0.393,0.613 -0.727,0.613 z m -0.723,2.12 v -0.107 -0.561 c 0,-0.393 0.276,-0.727 0.727,-0.727 0.334,0 0.669,0.334 0.669,0.727 v 3.516 c 0,0.391 -0.335,0.67 -0.669,0.67 -0.446,0 -0.727,-0.279 -0.727,-0.67 z m 0,5.63 v -0.111 -0.611 c 0,-0.336 0.276,-0.672 0.727,-0.672 0.334,0 0.669,0.336 0.669,0.672 v 2.842 0.168 0.502 c 0,0.393 -0.335,0.668 -0.669,0.668 -0.446,0 -0.727,-0.275 -0.727,-0.668 z m 0,7.864 v -0.168 -2.119 -0.107 -0.613 c 0,-0.334 0.276,-0.67 0.727,-0.67 0.334,0 0.669,0.336 0.669,0.67 v 0.613 0.107 2.119 0.168 0.502 c 0,0.445 -0.335,0.729 -0.669,0.729 -0.446,0 -0.727,-0.279 -0.727,-0.729 z m 2.287,-21.856 c 0.611,-0.727 1.338,-1.451 2.117,-2.064 0.278,-0.223 0.779,-0.168 1.005,0.111 0.224,0.391 0.109,0.781 -0.17,1.004 -0.668,0.557 -1.28,1.115 -1.896,1.84 -0.11,0.168 -0.334,0.279 -0.559,0.279 -0.113,0 -0.279,-0.111 -0.393,-0.111 -0.273,-0.28 -0.388,-0.725 -0.104,-1.059 z m 4.681,-3.459 c 0.945,-0.334 1.949,-0.613 2.953,-0.725 0.392,-0.059 0.727,0.223 0.779,0.67 0,0.334 -0.277,0.668 -0.613,0.775 -0.945,0 -1.729,0.279 -2.617,0.502 -0.059,0.113 -0.111,0.113 -0.168,0.113 -0.334,0 -0.613,-0.168 -0.613,-0.447 -0.167,-0.441 0,-0.776 0.279,-0.888 z m 5.688,0.725 c -0.391,0 -0.611,-0.389 -0.503,-0.725 0,-0.445 0.394,-0.613 0.728,-0.557 1.062,0.107 2.009,0.502 2.897,0.893 0.335,0.111 0.446,0.557 0.279,0.891 -0.112,0.279 -0.394,0.447 -0.671,0.447 -0.057,0 -0.225,0 -0.225,-0.057 -0.781,-0.39 -1.668,-0.613 -2.505,-0.892 z m 4.628,2.287 c -0.276,-0.225 -0.337,-0.613 -0.057,-1.004 0.278,-0.223 0.67,-0.223 1.004,-0.055 0.728,0.723 1.396,1.506 1.952,2.285 0.167,0.275 0.167,0.781 -0.229,1.002 -0.107,0.057 -0.222,0.057 -0.332,0.057 -0.336,0 -0.502,-0.057 -0.67,-0.277 -0.447,-0.782 -1.055,-1.395 -1.668,-2.008 z m 2.788,4.348 c -0.111,-0.389 0.111,-0.775 0.561,-0.834 0.332,-0.17 0.725,0.059 0.779,0.395 0.276,1 0.5,2.006 0.5,2.949 0,0.445 -0.277,0.729 -0.611,0.781 h -0.058 c -0.392,0 -0.726,-0.336 -0.726,-0.67 0,-0.948 -0.167,-1.785 -0.445,-2.621 z m 0.445,5.353 c 0,-0.391 0.334,-0.668 0.727,-0.668 0.391,0 0.668,0.277 0.668,0.668 v 2.844 c 0,0.334 -0.277,0.668 -0.668,0.668 -0.393,0 -0.727,-0.334 -0.727,-0.668 z m 0,5.631 c 0,-0.445 0.334,-0.725 0.727,-0.725 0.391,0 0.668,0.279 0.668,0.725 v 2.787 c 0,0.391 -0.277,0.727 -0.668,0.727 -0.393,0 -0.727,-0.336 -0.727,-0.727 z m 0,5.631 c 0,-0.445 0.334,-0.723 0.727,-0.723 0.391,0 0.668,0.277 0.668,0.723 v 1.842 c 0,0.445 -0.277,0.729 -0.668,0.729 -0.393,0 -0.727,-0.279 -0.727,-0.729 z"
   id="path81" />
		<path
   fill="#af9ecb"
   d="m 352.619,214.846 v -0.113 c 0,-0.441 0.334,-0.723 0.727,-0.723 0.391,0 0.67,0.277 0.67,0.723 v 0.113 c 0,0.836 0.168,1.672 0.276,2.453 0.11,0.445 -0.167,0.779 -0.56,0.891 h -0.108 c -0.394,0 -0.671,-0.223 -0.729,-0.557 -0.109,-0.893 -0.276,-1.84 -0.276,-2.787 z m 0.895,-2.287 c -0.393,-0.057 -0.613,-0.441 -0.561,-0.836 0.227,-0.947 0.561,-1.896 1.004,-2.787 0.168,-0.391 0.561,-0.502 0.947,-0.391 0.336,0.225 0.558,0.67 0.336,1.002 -0.336,0.783 -0.614,1.617 -0.84,2.455 -0.108,0.391 -0.391,0.557 -0.725,0.557 z m 0.334,7.974 c -0.166,-0.447 0,-0.781 0.336,-1.004 0.334,-0.168 0.777,0 0.893,0.334 0.443,0.836 0.893,1.617 1.339,2.342 0.335,0.279 0.224,0.781 -0.112,1.004 -0.056,0.055 -0.224,0.111 -0.445,0.111 -0.166,0 -0.392,-0.057 -0.558,-0.279 -0.563,-0.781 -1.065,-1.672 -1.453,-2.508 z m 1.67,-14.162 c 0.611,-0.781 1.34,-1.506 2.118,-2.119 0.279,-0.223 0.728,-0.223 1.005,0.111 0.225,0.279 0.225,0.723 -0.168,1.004 -0.613,0.557 -1.281,1.225 -1.839,1.896 -0.11,0.166 -0.337,0.221 -0.56,0.221 -0.111,0 -0.278,0 -0.391,-0.109 -0.331,-0.223 -0.387,-0.67 -0.165,-1.004 z m 1.837,18.846 c -0.276,-0.279 -0.334,-0.67 -0.055,-0.949 0.275,-0.391 0.668,-0.391 0.945,-0.166 0.725,0.668 1.449,1.115 2.229,1.504 0.334,0.227 0.502,0.615 0.334,1.006 -0.109,0.166 -0.442,0.334 -0.61,0.334 -0.167,0 -0.224,0 -0.392,-0.057 -0.829,-0.446 -1.665,-1.004 -2.451,-1.672 z m 2.735,-22.526 c 0.947,-0.502 1.844,-0.781 2.846,-1.004 0.444,-0.061 0.777,0.166 0.836,0.502 0.109,0.441 -0.11,0.775 -0.502,0.836 -0.894,0.223 -1.729,0.502 -2.509,0.947 -0.059,0 -0.226,0.057 -0.278,0.057 -0.277,0 -0.56,-0.223 -0.668,-0.445 -0.172,-0.336 -0.058,-0.781 0.275,-0.893 z m 2.564,25.256 c -0.446,-0.111 -0.613,-0.502 -0.561,-0.891 0.11,-0.334 0.502,-0.613 0.895,-0.445 0.777,0.166 1.729,0.277 2.619,0.277 0.393,0 0.727,0.334 0.727,0.67 0,0.441 -0.334,0.725 -0.727,0.725 -1.055,0 -2.005,-0.168 -2.953,-0.336 z m 5.857,-24.754 c -0.838,-0.229 -1.675,-0.395 -2.62,-0.395 -0.393,0 -0.668,-0.336 -0.668,-0.725 0,-0.395 0.334,-0.672 0.668,-0.672 1.061,0 2.063,0.17 3.01,0.443 0.393,0.061 0.615,0.395 0.502,0.838 -0.109,0.277 -0.389,0.502 -0.668,0.502 h -0.224 z m -0.282,23.418 c 0.836,-0.229 1.729,-0.502 2.511,-0.949 0.335,-0.111 0.778,0 0.944,0.277 0.168,0.336 0,0.783 -0.334,1.006 -0.836,0.445 -1.783,0.779 -2.729,1.002 -0.109,0.057 -0.166,0.057 -0.226,0.057 -0.275,0 -0.559,-0.223 -0.668,-0.559 -0.11,-0.388 0.169,-0.779 0.502,-0.834 z m 2.789,-22.414 c -0.392,-0.225 -0.502,-0.67 -0.276,-1.004 0.167,-0.395 0.61,-0.502 0.896,-0.279 0.945,0.502 1.78,1.059 2.508,1.672 0.276,0.279 0.334,0.727 0.058,1.004 -0.167,0.223 -0.392,0.279 -0.56,0.279 -0.168,0 -0.276,-0.057 -0.443,-0.223 -0.73,-0.56 -1.403,-1.06 -2.183,-1.449 z m 1.955,19.959 c 0.668,-0.557 1.279,-1.17 1.84,-1.896 0.225,-0.277 0.668,-0.332 1.004,-0.109 0.278,0.166 0.334,0.668 0.11,0.947 -0.612,0.779 -1.34,1.563 -2.01,2.23 -0.167,0.055 -0.392,0.111 -0.502,0.111 -0.224,0 -0.442,-0.061 -0.56,-0.279 -0.216,-0.279 -0.216,-0.668 0.118,-1.004 z m 2.004,-16.502 c -0.225,-0.279 -0.168,-0.729 0.11,-1.004 0.392,-0.229 0.78,-0.168 1.004,0.223 0.445,0.611 0.836,1.283 1.228,1.951 v -1.896 c 0,-0.445 0.279,-0.725 0.672,-0.725 0.39,0 0.725,0.279 0.725,0.725 v 2.844 c 0,0.334 -0.335,0.67 -0.725,0.67 -0.225,0 -0.447,-0.107 -0.561,-0.277 -0.058,0.111 -0.111,0.111 -0.225,0.17 -0.109,0.061 -0.225,0.061 -0.278,0.061 -0.278,0 -0.558,-0.111 -0.612,-0.396 -0.388,-0.898 -0.836,-1.678 -1.338,-2.346 z m 2.339,13.157 c -0.109,0.113 -0.336,0.168 -0.502,0.168 -0.109,0 -0.223,-0.055 -0.276,-0.055 -0.392,-0.113 -0.502,-0.559 -0.392,-0.893 0.109,-0.168 0.109,-0.279 0.166,-0.447 0.11,-0.334 0.56,-0.502 0.895,-0.334 0,0 0.059,0.055 0.109,0.055 v -1.059 c 0,-0.447 0.279,-0.725 0.672,-0.725 0.39,0 0.725,0.273 0.725,0.725 v 2.844 c 0,0.336 -0.335,0.67 -0.725,0.67 -0.393,0 -0.672,-0.334 -0.672,-0.67 z m 0,-30.832 c 0,-0.443 0.279,-0.725 0.672,-0.725 0.39,0 0.725,0.277 0.725,0.725 v 2.787 c 0,0.395 -0.335,0.729 -0.725,0.729 -0.393,0 -0.672,-0.334 -0.672,-0.729 z m 0,5.63 c 0,-0.395 0.279,-0.729 0.672,-0.729 0.39,0 0.725,0.334 0.725,0.729 v 2.844 c 0,0.334 -0.335,0.725 -0.725,0.725 -0.393,0 -0.672,-0.391 -0.672,-0.725 z m 0,5.688 c 0,-0.445 0.279,-0.725 0.672,-0.725 0.39,0 0.725,0.279 0.725,0.725 v 2.789 c 0,0.389 -0.335,0.723 -0.725,0.723 -0.393,0 -0.672,-0.334 -0.672,-0.723 z m 0,11.262 c 0,-0.391 0.279,-0.668 0.672,-0.668 0.39,0 0.725,0.277 0.725,0.668 v 2.844 c 0,0.395 -0.335,0.729 -0.725,0.729 -0.393,0 -0.672,-0.334 -0.672,-0.729 z m 0,11.318 c 0,-0.389 0.279,-0.668 0.672,-0.668 0.39,0 0.725,0.279 0.725,0.668 v 2.846 c 0,0.334 -0.335,0.723 -0.725,0.723 -0.393,0 -0.672,-0.389 -0.672,-0.723 z"
   id="path83" />
	</g>
</g>
</svg>
